<?xml version="1.0" encoding="UTF-8" standalone="no"?>
<svg
   xmlns:dc="http://purl.org/dc/elements/1.1/"
   xmlns:cc="http://creativecommons.org/ns#"
   xmlns:rdf="http://www.w3.org/1999/02/22-rdf-syntax-ns#"
   xmlns:svg="http://www.w3.org/2000/svg"
   xmlns="http://www.w3.org/2000/svg"
   xmlns:sodipodi="http://sodipodi.sourceforge.net/DTD/sodipodi-0.dtd"
   xmlns:inkscape="http://www.inkscape.org/namespaces/inkscape"
   version="1.1"
   id="svg62"
   width="82.126961mm"
   height="32.937828mm"
   viewBox="0 0 310.40111 124.48943"
   sodipodi:docname="c.svg"
   inkscape:version="1.0.2 (e86c870879, 2021-01-15, custom)">
  <metadata
     id="metadata68">
    <rdf:RDF>
      <cc:Work
         rdf:about="">
        <dc:format>image/svg+xml</dc:format>
        <dc:type
           rdf:resource="http://purl.org/dc/dcmitype/StillImage" />
        <dc:title></dc:title>
      </cc:Work>
    </rdf:RDF>
  </metadata>
  <defs
     id="defs66" />
  <sodipodi:namedview
     pagecolor="#ffffff"
     bordercolor="#666666"
     borderopacity="1"
     objecttolerance="10"
     gridtolerance="10"
     guidetolerance="10"
     inkscape:pageopacity="0"
     inkscape:pageshadow="2"
     inkscape:window-width="1600"
     inkscape:window-height="900"
     id="namedview64"
     showgrid="false"
     units="mm"
     inkscape:zoom="2"
     inkscape:cx="136.87322"
     inkscape:cy="80.815398"
     inkscape:window-x="0"
     inkscape:window-y="1440"
     inkscape:window-maximized="0"
     inkscape:current-layer="g1031"
     inkscape:object-paths="true"
     inkscape:snap-page="true"
     inkscape:snap-center="true"
     inkscape:snap-object-midpoints="true"
     inkscape:snap-text-baseline="true"
     inkscape:snap-midpoints="true"
     inkscape:snap-smooth-nodes="true"
     inkscape:snap-intersection-paths="true"
     inkscape:snap-bbox="true"
     inkscape:bbox-paths="true"
     inkscape:snap-bbox-edge-midpoints="true"
     inkscape:snap-bbox-midpoints="true"
     inkscape:bbox-nodes="true"
     showguides="true"
     inkscape:guide-bbox="true"
     inkscape:snap-global="false"
     fit-margin-top="0"
     fit-margin-left="0"
     fit-margin-right="0"
     fit-margin-bottom="0" />
  <g
     inkscape:groupmode="layer"
     inkscape:label="Image"
     id="g70"
     transform="translate(-6.1722615,-2.3996888)">
    <g
       id="g1031"
       transform="matrix(1.4542783,0,0,1.4542783,-173.54411,-39.929859)">
      <g
         id="g1365">
        <g
           id="g1326"
           transform="matrix(0.38064602,0,0,0.38064602,153.08515,30.599446)">
          <path
             style="fill:none;stroke:#000000;stroke-width:1px;stroke-linecap:butt;stroke-linejoin:miter;stroke-opacity:1"
             d="m 375.75359,51.136058 2.20748,-2.043336 c 2.4634,0.07612 7.16734,-2.133638 13.90539,-2.610385"
             id="path953"
             sodipodi:nodetypes="ccc" />
          <path
             style="fill:none;stroke:#000000;stroke-width:1px;stroke-linecap:butt;stroke-linejoin:miter;stroke-opacity:1"
             d="m 347.09955,30.178209 c -4.70978,-15.470975 -18.83641,-16.165559 -28.80137,-3.29213 -4.40276,1.976866 -11.65919,3.170683 -13.00377,5.986716 6.26732,1.921611 10.61877,4.203876 14.62132,6.551822 0,0 0.21706,42.781689 53.19243,37.982149 3.91251,-2.37703 2.95857,-2.47546 7.59227,-5.13381 4.6337,-2.65835 20.6373,-9.89643 20.6373,-9.89643 0,0 36.32498,-2.21439 48.43784,-7.6296 12.11286,-5.415226 -11.13906,-5.92028 -23.37245,-4.431561 0,0 -4.23783,-5.50078 -34.53666,-3.833028 0,0 -10.49083,-9.201045 -44.76691,-16.304128 z"
             id="path76"
             sodipodi:nodetypes="cccccccsssc" />
          <path
             style="fill:#1a1a1a;stroke:#000000;stroke-width:1px;stroke-linecap:butt;stroke-linejoin:miter;stroke-opacity:1"
             d="m 357.61093,62.203376 c 14.87425,5.42233 25.95903,-4.18865 28.49952,-16.630908 l -1.53598,1.068227 -0.34632,-2.172939 c -4.52319,11.17226 -8.53471,10.5454 -12.62441,11.72157 l 0.49166,-1.82649 c -3.26388,0.82248 -6.95476,3.15116 -9.13592,0.1543 -2.5156,4.41418 -4.21443,6.79992 -5.34855,7.68624"
             id="path947"
             sodipodi:nodetypes="cccccccc" />
          <path
             style="fill:none;stroke:#000000;stroke-width:1px;stroke-linecap:butt;stroke-linejoin:miter;stroke-opacity:1"
             d="m 357.61093,62.203376 c -4.24486,-2.35311 -8.45016,-4.75118 -9.52378,-10.70829 l 1.18753,-1.419678"
             id="path949"
             sodipodi:nodetypes="ccc" />
          <path
             style="fill:#1a1a1a;stroke:#000000;stroke-width:1px;stroke-linecap:butt;stroke-linejoin:miter;stroke-opacity:1"
             d="m 350.73635,52.596214 c 1.1429,0.493002 1.21614,1.808632 4.01786,1.025932 l 0.44698,-1.842243 c 6.55722,-1.493296 12.2496,-3.529383 17.06706,-6.114579 -2.53362,-0.932075 -7.24276,-1.107539 -19.90133,2.667434 l 1.67027,1.969797 c -0.96982,0.0018 -2.12154,1.067116 -3.30084,2.293659 z"
             id="path951"
             sodipodi:nodetypes="ccccccc" />
          <ellipse
             style="fill:#000000;fill-opacity:1;stroke:#000000;stroke-width:1.02244"
             id="path957"
             cx="325.91852"
             cy="28.236898"
             rx="3.2429032"
             ry="4.0416355" />
          <ellipse
             style="fill:#000000;fill-opacity:1;stroke:#000000;stroke-width:0.934061"
             id="path957-6"
             cx="316.68341"
             cy="23.717283"
             rx="3.0792968"
             ry="3.5523381" />
          <path
             style="fill:none;stroke:#000000;stroke-width:1px;stroke-linecap:butt;stroke-linejoin:miter;stroke-opacity:1"
             d="m 319.59225,24.882844 c 1.72426,0.07981 2.87353,0.680964 3.28506,1.951004"
             id="path999"
             sodipodi:nodetypes="cc" />
          <path
             style="fill:none;stroke:#000000;stroke-width:1px;stroke-linecap:butt;stroke-linejoin:miter;stroke-opacity:1"
             d="m 329.16052,28.14098 10.49392,-0.175811 0.0858,7.340955"
             id="path1001" />
          <path
             style="fill:none;stroke:#000000;stroke-width:1px;stroke-linecap:butt;stroke-linejoin:miter;stroke-opacity:1"
             d="m 353.34832,43.412131 7.42645,-35.943956 c 3.29822,-16.849626 25.78294,-12.57408 20.76941,2.098523 l -4.38859,-1.846232 c 3.68636,-9.335228 -8.60401,-10.387451 -10.81099,-2.962944 -1.0933,3.677955 -2.24595,8.898437 -3.08816,11.890995 -2.24334,7.971049 -4.70869,18.919033 -7.07962,30.307761 m -2.58721,12.745788 c -3.48999,17.57465 -6.51941,34.32427 -8.74881,47.587684 l -4.27896,-0.68328 9.98062,-49.614034"
             id="path1003"
             sodipodi:nodetypes="ccccssccccc" />
          <path
             style="fill:none;stroke:#000000;stroke-width:1px;stroke-linecap:butt;stroke-linejoin:miter;stroke-opacity:1"
             d="m 305.29441,32.872795 c 0,0 9.14588,-1.655771 15.38198,2.516552"
             id="path1005" />
          <path
             style="fill:none;stroke:#000000;stroke-width:1px;stroke-linecap:butt;stroke-linejoin:miter;stroke-opacity:1"
             d="m 318.88797,38.828305 c 4.09043,-1.58639 0.94733,-12.703885 -0.58979,-11.942226"
             id="path1007"
             sodipodi:nodetypes="cc" />
          <path
             style="fill:none;stroke:#000000;stroke-width:1px;stroke-linecap:butt;stroke-linejoin:miter;stroke-opacity:1"
             d="m 359.17517,77.546256 c 0.83052,3.66713 2.46618,4.51359 4.28349,4.7237 l -3.93959,10.74756"
             id="path1009"
             sodipodi:nodetypes="ccc" />
          <path
             style="fill:none;stroke:#000000;stroke-width:1px;stroke-linecap:butt;stroke-linejoin:miter;stroke-opacity:1"
             d="m 360.52364,90.276966 -10.89401,2.32561"
             id="path1011" />
          <path
             style="fill:none;stroke:#000000;stroke-width:1px;stroke-linecap:butt;stroke-linejoin:miter;stroke-opacity:1"
             d="m 373.10816,77.406766 -0.81287,4.6043 2.52907,0.24623 c -5.75619,6.33368 -6.44253,9.09884 -8.78201,13.0276 l -4.82883,-0.24205"
             id="path1013"
             sodipodi:nodetypes="ccccc" />
        </g>
        <g
           id="g1223"
           transform="translate(82.498044,-138.61331)">
          <g
             id="g1287">
            <g
               id="g1309"
               transform="matrix(1.4393689,0,0,1.4393689,-18.049126,-111.302)">
              <g
                 id="g1064"
                 transform="translate(-288.09322,-278.57255)">
                <path
                   style="fill:#000000;stroke:#000000;stroke-width:0.687626px;stroke-linecap:butt;stroke-linejoin:miter;stroke-opacity:1"
                   d="m 330.15573,505.99762 h 5.53634 l 0.27256,4.46764 h 0.83746 l 1.34781,-4.46639 h 5.64477 l -5.50058,15.41078 h -6.44808 z"
                   id="path1049" />
                <path
                   style="fill:#000000;stroke:#000000;stroke-width:0.687626px;stroke-linecap:butt;stroke-linejoin:miter;stroke-opacity:1"
                   d="m 329.93373,503.38616 h 5.46298 l -0.40352,-5.22286 h -5.44984 z"
                   id="path1051" />
                <path
                   style="fill:#000000;stroke:#000000;stroke-width:0.687626px;stroke-linecap:butt;stroke-linejoin:miter;stroke-opacity:1"
                   d="m 339.12065,503.43642 h 5.74149 l 1.90949,-5.30761 h -5.55126 z"
                   id="path1053" />
              </g>
              <g
                 id="g1115"
                 transform="translate(-92.596841,88.05066)">
                <g
                   id="g1080"
                   transform="translate(-178.86269,-88.333107)">
                  <path
                     style="fill:#000000;fill-opacity:1;stroke:none;stroke-width:0.687626px;stroke-linecap:butt;stroke-linejoin:miter;stroke-opacity:1;marker-start:none;marker-end:none"
                     d="m 340.04642,227.3637 h -6.102 l -3.54518,16.09966 h 6.20754 z"
                     id="path1066"
                     sodipodi:nodetypes="ccccc" />
                </g>
                <path
                   style="fill:#000000;stroke:#000000;stroke-width:0.687626px;stroke-linecap:butt;stroke-linejoin:miter;stroke-opacity:1"
                   d="m 155.88965,136.81166 1.22405,-5.29064 h 5.67663 l -1.39963,5.30159 z"
                   id="path1110"
                   sodipodi:nodetypes="ccccc" />
              </g>
              <path
                 style="fill:#000000;stroke:#000000;stroke-width:0.687626px;stroke-linecap:butt;stroke-linejoin:miter;stroke-opacity:1"
                 d="m 156.77201,155.02365 4.99688,-23.50263 h 7.52546 l 2.09018,9.89595 2.61325,-9.90202 6.04438,-0.0117 -6.25881,23.2849 h -4.54918 l -3.983,-9.50217 -2.42679,9.71068 z"
                 id="path1117"
                 sodipodi:nodetypes="ccccccccccc"
                 transform="translate(-85.720578,88.05066)" />
              <g
                 id="g1145"
                 transform="translate(-304.7075,-0.11879216)">
                <path
                   style="fill:#000000;stroke:#000000;stroke-width:0.687626px;stroke-linecap:butt;stroke-linejoin:miter;stroke-opacity:1"
                   d="m 404.6929,219.68613 6.38273,0.001 -4.65741,23.89891 h -6.60303 z"
                   id="path1139"
                   sodipodi:nodetypes="ccccc" />
                <path
                   style="fill:#000000;stroke:#000000;stroke-width:0.687626px;stroke-linecap:butt;stroke-linejoin:miter;stroke-opacity:1"
                   d="m 409.6026,231.86116 8.79631,-12.16558 6.75247,-0.008 -8.63339,11.45157 3.33823,12.63766 h -6.97921 z"
                   id="path1141"
                   sodipodi:nodetypes="ccccccc" />
                <g
                   id="g1181"
                   style="fill:#000000"
                   transform="translate(206.50606,-278.01446)"
                   inkscape:transform-center-x="17.831756"
                   inkscape:transform-center-y="-5.6844395">
                  <path
                     style="fill:#000000;stroke:#000000;stroke-width:0.687626px;stroke-linecap:butt;stroke-linejoin:miter;stroke-opacity:1"
                     d="m 216.788,521.55026 h 7.80579 l 5.11121,-9.33916 h 2.86061 l 0.54949,9.41223 h 7.39602 l -2.45537,-16.06039 -12.1443,-0.0108 z"
                     id="path1175"
                     sodipodi:nodetypes="ccccccccc" />
                  <path
                     style="fill:#000000;stroke:#000000;stroke-width:0.687626px;stroke-linecap:butt;stroke-linejoin:miter;stroke-opacity:1"
                     d="m 237.6333,502.99923 -10.65841,5.2e-4 3.01297,-5.3054 6.86852,-0.006 z"
                     id="path1177"
                     sodipodi:nodetypes="ccccc" />
                </g>
                <path
                   style="fill:#000000;stroke:#000000;stroke-width:0.687626px;stroke-linecap:butt;stroke-linejoin:miter;stroke-opacity:1"
                   d="m 472.39893,219.67573 -1.22487,5.31054 -10.91141,-0.007 -4.91687,6.35866 1.64254,6.13003 h 5.57865 l 0.88965,-3.32022 h -4.84033 l 1.77596,-6.58909 10.11548,-0.0158 -5.1507,25.55456 h -6.25607 l 2.1022,-9.5474 h -8.45768 l -4.36486,-12.36493 9.55522,-11.49947 z"
                   id="path1211"
                   sodipodi:nodetypes="ccccccccccccccccc" />
              </g>
              <path
                 style="fill:#000000;stroke:#000000;stroke-width:0.69755px;stroke-linecap:butt;stroke-linejoin:miter;stroke-opacity:1"
                 d="m 171.3689,227.4295 h 15.96302 l -1.16019,6.06107 -9.98189,0.0108 -0.67048,3.17307 h 9.55151 l -1.39408,6.72881 -15.30461,0.005 z"
                 id="path1217"
                 sodipodi:nodetypes="ccccccccc" />
              <path
                 style="fill:#000000;stroke:#000000;stroke-width:0.649249px;stroke-linecap:butt;stroke-linejoin:miter;stroke-opacity:1"
                 d="m 187.79757,224.88104 h -16.00382 l 1.05896,-5.31877 16.11091,-0.0256 z"
                 id="path1219"
                 sodipodi:nodetypes="ccccc" />
            </g>
          </g>
        </g>
      </g>
    </g>
  </g>
</svg>
